<svg width="22" height="22" viewBox="0 0 22 22" fill="none" xmlns="http://www.w3.org/2000/svg">
<path d="M10.9998 15.3337L12.5165 13.817L10.7832 12.0837H15.3332V9.91699H10.7832L12.5165 8.18366L10.9998 6.66699L6.6665 11.0003L10.9998 15.3337ZM10.9998 21.8337C9.50123 21.8337 8.09289 21.5493 6.77484 20.9805C5.45678 20.4118 4.31025 19.6399 3.33525 18.6649C2.36025 17.6899 1.58838 16.5434 1.01963 15.2253C0.450879 13.9073 0.166504 12.4989 0.166504 11.0003C0.166504 9.50171 0.450879 8.09338 1.01963 6.77532C1.58838 5.45727 2.36025 4.31074 3.33525 3.33574C4.31025 2.36074 5.45678 1.58887 6.77484 1.02012C8.09289 0.451367 9.50123 0.166992 10.9998 0.166992C12.4984 0.166992 13.9068 0.451367 15.2248 1.02012C16.5429 1.58887 17.6894 2.36074 18.6644 3.33574C19.6394 4.31074 20.4113 5.45727 20.98 6.77532C21.5488 8.09338 21.8332 9.50171 21.8332 11.0003C21.8332 12.4989 21.5488 13.9073 20.98 15.2253C20.4113 16.5434 19.6394 17.6899 18.6644 18.6649C17.6894 19.6399 16.5429 20.4118 15.2248 20.9805C13.9068 21.5493 12.4984 21.8337 10.9998 21.8337ZM10.9998 19.667C13.4193 19.667 15.4686 18.8274 17.1478 17.1482C18.8269 15.4691 19.6665 13.4198 19.6665 11.0003C19.6665 8.58088 18.8269 6.53158 17.1478 4.85241C15.4686 3.17324 13.4193 2.33366 10.9998 2.33366C8.58039 2.33366 6.53109 3.17324 4.85192 4.85241C3.17275 6.53158 2.33317 8.58088 2.33317 11.0003C2.33317 13.4198 3.17275 15.4691 4.85192 17.1482C6.53109 18.8274 8.58039 19.667 10.9998 19.667Z" fill="#1C1B1F"/>
</svg>
