<svg width="18" height="19" viewBox="0 0 18 19" fill="none" xmlns="http://www.w3.org/2000/svg">
<path d="M2 16.1021H3.425L13.2 6.45027L11.775 5.04323L2 14.6951V16.1021ZM0 18.0769V13.8805L13.2 0.871466C13.4 0.690443 13.6208 0.550561 13.8625 0.451821C14.1042 0.353081 14.3583 0.303711 14.625 0.303711C14.8917 0.303711 15.15 0.353081 15.4 0.451821C15.65 0.550561 15.8667 0.698671 16.05 0.896151L17.425 2.27851C17.625 2.45953 17.7708 2.67347 17.8625 2.92032C17.9542 3.16717 18 3.41402 18 3.66087C18 3.92418 17.9542 4.17514 17.8625 4.41376C17.7708 4.65238 17.625 4.87044 17.425 5.06791L4.25 18.0769H0ZM12.475 5.75909L11.775 5.04323L13.2 6.45027L12.475 5.75909Z" fill="#1C1B1F"/>
</svg>
