<svg width="42" height="23" viewBox="0 0 42 23" fill="none" xmlns="http://www.w3.org/2000/svg">
<path d="M11.5585 18.3748C12.5057 18.3748 13.3536 18.0311 14.1022 17.3436C14.8509 16.6561 15.3779 15.7585 15.6835 14.6509L16.371 12.0155C16.8599 10.1821 16.7377 8.49203 16.0043 6.94515C15.271 5.39827 14.2168 4.62484 12.8418 4.62484H6.37933L7.25016 13.6196C7.40294 14.9564 7.88419 16.0832 8.69391 16.9998C9.50363 17.9165 10.4585 18.3748 11.5585 18.3748ZM30.4418 18.3748C31.5418 18.3748 32.4967 17.9165 33.3064 16.9998C34.1161 16.0832 34.5974 14.9564 34.7502 13.6196L35.621 4.62484H29.2043C27.8293 4.62484 26.7752 5.40782 26.0418 6.9738C25.3085 8.53977 25.1863 10.2394 25.6752 12.0728L26.3168 14.6509C26.6224 15.7585 27.1495 16.6561 27.8981 17.3436C28.6467 18.0311 29.4946 18.3748 30.4418 18.3748ZM11.5585 22.9582C9.54183 22.9582 7.77725 22.1274 6.26475 20.466C4.75225 18.8045 3.87377 16.7134 3.62933 14.1925L2.66683 4.62484H0.833496V0.0415039H12.8418C14.1863 0.0415039 15.4161 0.452094 16.5314 1.27327C17.6467 2.09446 18.5252 3.21164 19.1668 4.62484H22.8793C23.521 3.21164 24.3995 2.09446 25.5147 1.27327C26.63 0.452094 27.8599 0.0415039 29.2043 0.0415039H41.1668V4.62484H39.3335L38.371 14.1925C38.1266 16.7134 37.2481 18.8045 35.7356 20.466C34.2231 22.1274 32.4585 22.9582 30.4418 22.9582C28.7002 22.9582 27.1342 22.3375 25.7439 21.0962C24.3536 19.8549 23.3835 18.203 22.8335 16.1405L22.146 13.5623C22.0849 13.295 22.0238 13.0181 21.9627 12.7316C21.9016 12.4452 21.8404 12.0346 21.7793 11.4998H20.221C20.1599 11.9582 20.0988 12.3306 20.0377 12.617C19.9766 12.9035 19.9154 13.1804 19.8543 13.4478L19.1668 16.0832C18.6168 18.1457 17.6467 19.8071 16.2564 21.0675C14.8661 22.328 13.3002 22.9582 11.5585 22.9582Z" fill="#15AB98"/>
</svg>
