<svg width="20" height="17" viewBox="0 0 20 17" fill="none" xmlns="http://www.w3.org/2000/svg">
<path d="M1.98319 16.5674C1.43782 16.5674 0.970938 16.3715 0.582563 15.9799C0.194188 15.5882 0 15.1174 0 14.5674V2.56738C0 2.01738 0.194188 1.54655 0.582563 1.15488C0.970938 0.763216 1.43782 0.567383 1.98319 0.567383H17.8487C18.3941 0.567383 18.861 0.763216 19.2494 1.15488C19.6377 1.54655 19.8319 2.01738 19.8319 2.56738V14.5674C19.8319 15.1174 19.6377 15.5882 19.2494 15.9799C18.861 16.3715 18.3941 16.5674 17.8487 16.5674H1.98319ZM9.91597 9.56738L1.98319 4.56738V14.5674H17.8487V4.56738L9.91597 9.56738ZM9.91597 7.56738L17.8487 2.56738H1.98319L9.91597 7.56738ZM1.98319 4.56738V2.56738V14.5674V4.56738Z" fill="white"/>
</svg>
