<svg width="20" height="19" viewBox="0 0 20 19" fill="none" xmlns="http://www.w3.org/2000/svg">
<path d="M3.95173 7.84649C3.54496 8.25372 3.83339 8.94948 4.40898 8.94948L13.9989 8.94948C14.5518 8.94948 15 9.39771 15 9.95063C15 10.5035 14.5518 10.9518 13.9989 10.9518L4.40898 10.9518C3.83339 10.9518 3.54496 11.6475 3.95173 12.0548C4.20065 12.304 4.20418 12.7066 3.95967 12.9601L3.71308 13.2158C3.32143 13.6219 2.67277 13.6276 2.27406 13.2284L0.980167 11.9331C-0.113815 10.8378 -0.113815 9.06343 0.980167 7.96819L2.27406 6.67282C2.67277 6.27365 3.32143 6.27934 3.71308 6.68544L3.95967 6.94113C4.20418 7.19466 4.20065 7.59729 3.95173 7.84649ZM7 12.9541C7.55229 12.9541 8 13.4018 8 13.9541V14.9564C8 16.0622 8.89646 16.9586 10.0023 16.9586H13C15.7614 16.9586 18 14.7201 18 11.9586V7.94262C18 5.18119 15.7614 2.94261 13 2.94261H10.0023C8.89646 2.94261 8 3.83907 8 4.9449V5.94719C8 6.49948 7.55229 6.94719 7 6.94719C6.44771 6.94719 6 6.49948 6 5.94719V2.94261C6 2.39198 6.19583 1.92061 6.5875 1.52849C6.97917 1.13638 7.45 0.940319 8 0.940319H18C18.55 0.940319 19.0208 1.13638 19.4125 1.52849C19.8042 1.92061 20 2.39198 20 2.94261L20 16.9586C20 17.5093 19.8042 17.9806 19.4125 18.3728C19.0208 18.7649 18.55 18.9609 18 18.9609H8C7.45 18.9609 6.97917 18.7649 6.5875 18.3728C6.19583 17.9806 6 17.5093 6 16.9586V13.9541C6 13.4018 6.44771 12.9541 7 12.9541Z" fill="white"/>
</svg>
