<svg width="26" height="45" viewBox="0 0 26 45" fill="none" xmlns="http://www.w3.org/2000/svg">
<path d="M13.0001 44.1251C9.42508 44.1251 6.39244 42.5687 3.90216 39.4559C1.41189 36.343 0.166748 32.5522 0.166748 28.0835C0.166748 24.4932 1.01466 21.2753 2.7105 18.4298C4.40633 15.5843 6.62925 13.6651 9.37925 12.672C8.76814 12.481 8.1723 12.2041 7.59175 11.8413C7.01119 11.4784 6.49175 11.0106 6.03341 10.4376C5.02508 9.17723 4.37578 7.6781 4.0855 5.94025C3.79522 4.2024 3.72647 2.43591 3.87925 0.640771C5.31536 0.449799 6.72855 0.535736 8.11883 0.898583C9.50911 1.26143 10.7084 2.07306 11.7167 3.33348C12.4195 4.21195 12.9313 5.20501 13.2522 6.31265C13.573 7.42028 13.7792 8.58522 13.8709 9.80744C14.2681 8.62341 14.7494 7.50622 15.3147 6.45587C15.8799 5.40553 16.514 4.44112 17.2167 3.56265C17.5529 3.14251 17.9806 2.93244 18.5001 2.93244C19.0195 2.93244 19.4473 3.14251 19.7834 3.56265C20.1195 3.98278 20.2876 4.51751 20.2876 5.16681C20.2876 5.81612 20.1195 6.35084 19.7834 6.77098C19.1112 7.61126 18.5154 8.53747 17.9959 9.54963C17.4765 10.5618 17.0945 11.6408 16.8501 12.7866C19.539 13.856 21.7084 15.7944 23.3584 18.6017C25.0084 21.409 25.8334 24.5696 25.8334 28.0835C25.8334 32.5522 24.5883 36.343 22.098 39.4559C19.6077 42.5687 16.5751 44.1251 13.0001 44.1251ZM13.0001 39.5418C15.5362 39.5418 17.698 38.4246 19.4855 36.1903C21.273 33.9559 22.1667 31.2536 22.1667 28.0835C22.1667 24.9133 21.273 22.2111 19.4855 19.9767C17.698 17.7423 15.5362 16.6251 13.0001 16.6251C10.464 16.6251 8.30216 17.7423 6.51466 19.9767C4.72716 22.2111 3.83341 24.9133 3.83341 28.0835C3.83341 31.2536 4.72716 33.9559 6.51466 36.1903C8.30216 38.4246 10.464 39.5418 13.0001 39.5418Z" fill="#15AB98"/>
</svg>
