<svg width="38" height="49" viewBox="0 0 38 49" fill="none" xmlns="http://www.w3.org/2000/svg">
<path d="M26.3334 48.7085C25.814 48.7085 25.3786 48.4889 25.0272 48.0496C24.6758 47.6104 24.5001 47.0661 24.5001 46.4168C24.5001 45.7675 24.6758 45.2233 25.0272 44.784C25.3786 44.3448 25.814 44.1252 26.3334 44.1252H31.8334V41.8335H26.3334C25.814 41.8335 25.3786 41.6139 25.0272 41.1746C24.6758 40.7354 24.5001 40.1911 24.5001 39.5418C24.5001 38.8925 24.6758 38.3483 25.0272 37.909C25.3786 37.4698 25.814 37.2502 26.3334 37.2502H31.8334V34.9585H26.3334C25.814 34.9585 25.3786 34.7389 25.0272 34.2996C24.6758 33.8604 24.5001 33.3161 24.5001 32.6668C24.5001 32.0175 24.6758 31.4733 25.0272 31.034C25.3786 30.5948 25.814 30.3752 26.3334 30.3752H31.8334V28.0835H26.3334C25.814 28.0835 25.3786 27.8639 25.0272 27.4246C24.6758 26.9854 24.5001 26.4411 24.5001 25.7918C24.5001 25.1425 24.6758 24.5983 25.0272 24.159C25.3786 23.7198 25.814 23.5002 26.3334 23.5002H31.8334V21.2085H26.3334C25.814 21.2085 25.3786 20.9889 25.0272 20.5496C24.6758 20.1104 24.5001 19.5661 24.5001 18.9168C24.5001 18.2675 24.6758 17.7233 25.0272 17.284C25.3786 16.8448 25.814 16.6252 26.3334 16.6252H31.8334V14.3335H26.3334C25.814 14.3335 25.3786 14.1139 25.0272 13.6746C24.6758 13.2354 24.5001 12.6911 24.5001 12.0418C24.5001 11.3925 24.6758 10.8483 25.0272 10.409C25.3786 9.96978 25.814 9.75016 26.3334 9.75016H33.6667C34.6751 9.75016 35.5383 10.1989 36.2563 11.0965C36.9744 11.9941 37.3334 13.0731 37.3334 14.3335V44.1252C37.3334 45.3856 36.9744 46.4646 36.2563 47.3621C35.5383 48.2597 34.6751 48.7085 33.6667 48.7085H26.3334ZM11.6667 30.3752C13.6834 30.3752 15.4098 29.1338 16.8459 26.6512C18.282 24.1686 19.0001 21.2085 19.0001 17.771C19.0001 14.3335 18.282 11.3734 16.8459 8.89079C15.4098 6.40815 13.6834 5.16683 11.6667 5.16683C9.65008 5.16683 7.92369 6.40815 6.48758 8.89079C5.05147 11.3734 4.33341 14.3335 4.33341 17.771C4.33341 21.2085 5.05147 24.1686 6.48758 26.6512C7.92369 29.1338 9.65008 30.3752 11.6667 30.3752ZM11.6667 48.7085C10.2001 48.7085 8.99314 48.0305 8.04592 46.6746C7.09869 45.3187 6.73203 43.7241 6.94591 41.8908L7.67925 33.8127C5.60147 32.5522 3.91328 30.4802 2.61466 27.5965C1.31605 24.7128 0.666748 21.4377 0.666748 17.771C0.666748 12.9967 1.73619 8.93853 3.87508 5.59652C6.01397 2.2545 8.61119 0.583496 11.6667 0.583496C14.7223 0.583496 17.3195 2.2545 19.4584 5.59652C21.5973 8.93853 22.6667 12.9967 22.6667 17.771C22.6667 21.4377 22.0174 24.7128 20.7188 27.5965C19.4202 30.4802 17.732 32.5522 15.6542 33.8127L16.3876 41.8908C16.6015 43.7241 16.2348 45.3187 15.2876 46.6746C14.3404 48.0305 13.1334 48.7085 11.6667 48.7085Z" fill="#15AB98"/>
</svg>
