<svg width="22" height="20" viewBox="0 0 22 20" fill="none" xmlns="http://www.w3.org/2000/svg">
<path d="M8.24995 19.2624L7.84995 16.1687C7.63328 16.0881 7.42912 15.9914 7.23745 15.8786C7.04578 15.7659 6.85828 15.645 6.67495 15.5161L3.69995 16.7246L0.949951 12.1324L3.52495 10.2471C3.50828 10.1344 3.49995 10.0256 3.49995 9.92086V9.26828C3.49995 9.16355 3.50828 9.05478 3.52495 8.94199L0.949951 7.05677L3.69995 2.46456L6.67495 3.67304C6.85828 3.54413 7.04995 3.42328 7.24995 3.31049C7.44995 3.1977 7.64995 3.10102 7.84995 3.02046L8.24995 -0.0732422H13.75L14.15 3.02046C14.3666 3.10102 14.5708 3.1977 14.7625 3.31049C14.9541 3.42328 15.1416 3.54413 15.325 3.67304L18.3 2.46456L21.05 7.05677L18.475 8.94199C18.4916 9.05478 18.5 9.16355 18.5 9.26828V9.92086C18.5 10.0256 18.4833 10.1344 18.45 10.2471L21.025 12.1324L18.275 16.7246L15.325 15.5161C15.1416 15.645 14.95 15.7659 14.75 15.8786C14.55 15.9914 14.35 16.0881 14.15 16.1687L13.75 19.2624H8.24995ZM9.99995 17.3288H11.975L12.325 14.7669C12.8416 14.6379 13.3208 14.4486 13.7625 14.1989C14.2041 13.9491 14.6083 13.647 14.975 13.2925L17.45 14.2835L18.425 12.6399L16.275 11.0689C16.3583 10.8433 16.4166 10.6057 16.45 10.3559C16.4833 10.1062 16.5 9.85238 16.5 9.59457C16.5 9.33676 16.4833 9.08298 16.45 8.83323C16.4166 8.58348 16.3583 8.34581 16.275 8.12023L18.425 6.54921L17.45 4.90568L14.975 5.9208C14.6083 5.5502 14.2041 5.24003 13.7625 4.99027C13.3208 4.74052 12.8416 4.5512 12.325 4.42229L12 1.86032H10.025L9.67495 4.42229C9.15829 4.5512 8.67912 4.74052 8.23745 4.99027C7.79578 5.24003 7.39162 5.54215 7.02495 5.89663L4.54995 4.90568L3.57495 6.54921L5.72495 8.09606C5.64162 8.33775 5.58328 8.57945 5.54995 8.82115C5.51662 9.06284 5.49995 9.32065 5.49995 9.59457C5.49995 9.85238 5.51662 10.1021 5.54995 10.3438C5.58328 10.5855 5.64162 10.8272 5.72495 11.0689L3.57495 12.6399L4.54995 14.2835L7.02495 13.2683C7.39162 13.6389 7.79578 13.9491 8.23745 14.1989C8.67912 14.4486 9.15829 14.6379 9.67495 14.7669L9.99995 17.3288ZM11.05 12.9783C12.0166 12.9783 12.8416 12.648 13.525 11.9874C14.2083 11.3267 14.55 10.5291 14.55 9.59457C14.55 8.66002 14.2083 7.86242 13.525 7.20179C12.8416 6.54115 12.0166 6.21084 11.05 6.21084C10.0666 6.21084 9.23745 6.54115 8.56245 7.20179C7.88745 7.86242 7.54995 8.66002 7.54995 9.59457C7.54995 10.5291 7.88745 11.3267 8.56245 11.9874C9.23745 12.648 10.0666 12.9783 11.05 12.9783Z" fill="#1C1B1F"/>
</svg>
