<svg width="17" height="19" viewBox="0 0 17 19" fill="none" xmlns="http://www.w3.org/2000/svg">
<path d="M0 16.1441V14.1693H2.725C1.875 13.4452 1.20833 12.573 0.725 11.5527C0.241667 10.5324 0 9.42978 0 8.2449C0 6.40175 0.566667 4.77666 1.7 3.36961C2.83333 1.96257 4.26667 1.03688 6 0.592553V2.66609C4.83333 3.07751 3.875 3.78926 3.125 4.80134C2.375 5.81343 2 6.96128 2 8.2449C2 9.13356 2.17917 9.95228 2.5375 10.7011C2.89583 11.4498 3.38333 12.0958 4 12.6388V10.2197H6V16.1441H0ZM14 8.2449C14 7.40561 13.8292 6.61981 13.4875 5.88748C13.1458 5.15516 12.65 4.47633 12 3.85097V6.2701H10V0.345703H16V2.3205H13.275C14.2583 3.19271 14.9542 4.12662 15.3625 5.12225C15.7708 6.11788 15.9833 7.15876 16 8.2449H14ZM12 18.1189C11.7167 18.1189 11.4792 18.0243 11.2875 17.835C11.0958 17.6458 11 17.4113 11 17.1315V14.1693C11 13.8895 11.0958 13.655 11.2875 13.4658C11.4792 13.2765 11.7167 13.1819 12 13.1819V12.1945C12 11.6514 12.1958 11.1865 12.5875 10.7998C12.9792 10.4131 13.45 10.2197 14 10.2197C14.55 10.2197 15.0208 10.4131 15.4125 10.7998C15.8042 11.1865 16 11.6514 16 12.1945V13.1819C16.2833 13.1819 16.5208 13.2765 16.7125 13.4658C16.9042 13.655 17 13.8895 17 14.1693V17.1315C17 17.4113 16.9042 17.6458 16.7125 17.835C16.5208 18.0243 16.2833 18.1189 16 18.1189H12ZM13 13.1819H15V12.1945C15 11.9147 14.9042 11.6802 14.7125 11.491C14.5208 11.3017 14.2833 11.2071 14 11.2071C13.7167 11.2071 13.4792 11.3017 13.2875 11.491C13.0958 11.6802 13 11.9147 13 12.1945V13.1819Z" fill="#1C1B1F"/>
</svg>
