<svg width="24" height="24" viewBox="0 0 24 24" fill="none" xmlns="http://www.w3.org/2000/svg">
<path d="M12 0C5.376 0 0 5.376 0 12C0 18.624 5.376 24 12 24C18.624 24 24 18.624 24 12C24 5.376 18.624 0 12 0ZM6.42 19.8C7.992 18.672 9.912 18 12 18C14.088 18 16.008 18.672 17.58 19.8C16.008 20.928 14.088 21.6 12 21.6C9.912 21.6 7.992 20.928 6.42 19.8ZM19.368 18.144C17.2661 16.4949 14.6717 15.5986 12 15.5986C9.32834 15.5986 6.73393 16.4949 4.632 18.144C3.18831 16.4224 2.39796 14.2468 2.4 12C2.4 6.696 6.696 2.4 12 2.4C17.304 2.4 21.6 6.696 21.6 12C21.6 14.34 20.76 16.476 19.368 18.144Z" fill="black"/>
<path d="M11.9998 4.7998C9.6838 4.7998 7.7998 6.6838 7.7998 8.9998C7.7998 11.3158 9.6838 13.1998 11.9998 13.1998C14.3158 13.1998 16.1998 11.3158 16.1998 8.9998C16.1998 6.6838 14.3158 4.7998 11.9998 4.7998ZM11.9998 10.7998C11.0038 10.7998 10.1998 9.9958 10.1998 8.9998C10.1998 8.0038 11.0038 7.1998 11.9998 7.1998C12.9958 7.1998 13.7998 8.0038 13.7998 8.9998C13.7998 9.9958 12.9958 10.7998 11.9998 10.7998Z" fill="black"/>
</svg>
